<?xml version="1.0" encoding="utf-8"?>
<!-- Generator: Adobe Illustrator 25.2.3, SVG Export Plug-In . SVG Version: 6.00 Build 0)  -->
<svg version="1.1" xmlns="http://www.w3.org/2000/svg" xmlns:xlink="http://www.w3.org/1999/xlink" x="0px" y="0px"
	 viewBox="0 0 600 600" style="enable-background:new 0 0 600 600;" xml:space="preserve">
<style type="text/css">
	.st0{fill:#88C0C2;}
	.st1{fill:none;stroke:#262424;stroke-width:1.5682398;stroke-linecap:round;stroke-linejoin:round;stroke-miterlimit:10;}
	.st2{fill:#DE9244;}
	.st3{fill:#FFFFFF;stroke:#262424;stroke-width:1.5682398;stroke-linecap:round;stroke-linejoin:round;stroke-miterlimit:10;}
	.st4{fill:#FFFFFF;}
	.st5{fill:#262424;}
</style>
<g id="PLANTS">
	<g>
		<g>
			<path class="st0" d="M442.9933472,502.2242737c0,0,2.1450195-51.8534851,49.4164429-67.1375427
				s50.5943604,32.0279236,21.1233521,39.7385864C473.304718,485.3504944,442.9933472,502.2242737,442.9933472,502.2242737z"/>
			<path class="st1" d="M442.9933472,502.2242737c0,0,19.6125183-36.8969116,68.0848389-54.255249"/>
		</g>
		<g>
			<path class="st2" d="M434.6517334,502.2242737c0,0-31.1696472-25.3038025-18.7944031-61.6894836
				c12.3752747-36.3856812,43.2561035-16.572937,34.4132385,5.2708435
				C438.1998596,475.6228638,434.6517334,502.2242737,434.6517334,502.2242737z"/>
			<path class="st1" d="M434.6517334,502.2242737c0,0-13.8173218-29.2229004-2.1734009-67.3124084"/>
		</g>
	</g>
</g>
<g id="DASHBOARD_2">
	<g>
		<g>
			<g>
				<path class="st3" d="M557.1682739,411.0332336H132.0416565c-6.7313309,0-12.1881561-5.4568176-12.1881561-12.1881409
					V109.4039078c0-6.7313232,5.4568253-12.1881485,12.1881561-12.1881485h425.1266174
					c6.7313232,0,12.1881714,5.4568253,12.1881714,12.1881485v289.4411926
					C569.3564453,405.576416,563.8995972,411.0332336,557.1682739,411.0332336z"/>
			</g>
		</g>
		<line class="st1" x1="307.3762512" y1="111.3597641" x2="307.3762512" y2="396.8892212"/>
		<line class="st1" x1="549.0365601" y1="170.4052277" x2="149.523819" y2="170.4052277"/>
		<path class="st1" d="M280.0131531,236.1454773H156.5700836c-3.8915405,0-7.0462646-3.1547241-7.0462646-7.0462646v-22.2857513
			c0-3.8915558,3.1547241-7.0462646,7.0462646-7.0462646h123.4430695c3.8915405,0,7.0462646,3.1547089,7.0462646,7.0462646
			v22.2857513C287.0594177,232.9907532,283.9046936,236.1454773,280.0131531,236.1454773z"/>
		<path class="st0" d="M281.3408508,159.1470795h-79.151123c-3.1582794,0-5.7185669-2.5602875-5.7185669-5.7185669v-24.9411469
			c0-3.1582718,2.5602875-5.7185669,5.7185669-5.7185669h79.151123c3.1582642,0,5.7185669,2.5602951,5.7185669,5.7185669v24.9411469
			C287.0594177,156.586792,284.499115,159.1470795,281.3408508,159.1470795z"/>
		<path class="st0" d="M414.8841553,159.1470795h-79.1510925c-3.1582947,0-5.7185974-2.5602875-5.7185974-5.7185669v-24.9411469
			c0-3.1582718,2.5603027-5.7185669,5.7185974-5.7185669h79.1510925c3.1582642,0,5.7185669,2.5602951,5.7185669,5.7185669
			v24.9411469C420.6027222,156.586792,418.0424194,159.1470795,414.8841553,159.1470795z"/>
		<path class="st3" d="M467.6378784,268.6394348H335.7330627c-3.1582947,0-5.7185974-2.5602722-5.7185974-5.7185669v-75.5389404
			c0-3.1582794,2.5603027-5.7185669,5.7185974-5.7185669h131.9048157c3.1582642,0,5.7185669,2.5602875,5.7185669,5.7185669
			v75.5389404C473.3564453,266.0791626,470.7961426,268.6394348,467.6378784,268.6394348z"/>
		<path class="st3" d="M467.6378784,390.0498352H335.7330627c-3.1582947,0-5.7185974-2.5603027-5.7185974-5.7185669v-98.0920715
			c0-3.1582642,2.5603027-5.7185669,5.7185974-5.7185669h131.9048157c3.1582642,0,5.7185669,2.5603027,5.7185669,5.7185669
			v98.0920715C473.3564453,387.4895325,470.7961426,390.0498352,467.6378784,390.0498352z"/>
		<path class="st0" d="M543.3179932,390.0498352h-52.3617859c-3.1582947,0-5.7185974-2.5603027-5.7185974-5.7185669v-40.4248047
			c0-3.1582642,2.5603027-5.7185669,5.7185974-5.7185669h52.3617859c3.1583252,0,5.7185669,2.5603027,5.7185669,5.7185669
			v40.4248047C549.0365601,387.4895325,546.4763184,390.0498352,543.3179932,390.0498352z"/>
		<g>
			<path class="st2" d="M544.9108276,135.2178192h-43.7850952c-2.278595,0-4.1257324-1.8471527-4.1257324-4.1257324v-4.1975555
				c0-2.2785797,1.8471375-4.1257324,4.1257324-4.1257324h43.7850952c2.2786255,0,4.1257324,1.8471527,4.1257324,4.1257324
				v4.1975555C549.0365601,133.3706665,547.1894531,135.2178192,544.9108276,135.2178192z"/>
			<path class="st2" d="M544.9108276,159.1470795h-43.7850952c-2.278595,0-4.1257324-1.8471527-4.1257324-4.1257324v-4.1975555
				c0-2.2785797,1.8471375-4.1257324,4.1257324-4.1257324h43.7850952c2.2786255,0,4.1257324,1.8471527,4.1257324,4.1257324
				v4.1975555C549.0365601,157.2999268,547.1894531,159.1470795,544.9108276,159.1470795z"/>
		</g>
		<path class="st0" d="M176.7984772,159.1470795h-23.9511261c-1.8355408,0-3.3235321-1.4879913-3.3235321-3.3235168v-29.7312317
			c0-1.8355331,1.4879913-3.3235321,3.3235321-3.3235321h23.9511261c1.8355255,0,3.3235168,1.487999,3.3235168,3.3235321v29.7312317
			C180.121994,157.6590881,178.6340027,159.1470795,176.7984772,159.1470795z"/>
		<path class="st1" d="M280.0131531,293.0918579H156.5700836c-3.8915405,0-7.0462646-3.1546936-7.0462646-7.0462646v-22.2857361
			c0-3.8915405,3.1547241-7.0462646,7.0462646-7.0462646h123.4430695c3.8915405,0,7.0462646,3.1547241,7.0462646,7.0462646
			v22.2857361C287.0594177,289.9371643,283.9046936,293.0918579,280.0131531,293.0918579z"/>
		<path class="st1" d="M280.0131531,350.038269H156.5700836c-3.8915405,0-7.0462646-3.1547241-7.0462646-7.0462646v-22.2857666
			c0-3.8915405,3.1547241-7.0462646,7.0462646-7.0462646h123.4430695c3.8915405,0,7.0462646,3.1547241,7.0462646,7.0462646
			v22.2857666C287.0594177,346.8835449,283.9046936,350.038269,280.0131531,350.038269z"/>
		<g>
			<path class="st0" d="M373.8256836,193.8713989c-17.2699585,0-31.2799683,14.0100098-31.2799683,31.2800293
				c0,17.2799683,14.0100098,31.2799683,31.2799683,31.2799683c17.2700195,0,31.2800293-14,31.2800293-31.2799683
				C405.1057129,207.8814087,391.0957031,193.8713989,373.8256836,193.8713989z M373.8256836,239.661438
				c-8.0100098,0-14.5100098-6.5-14.5100098-14.5100098s6.5-14.5100098,14.5100098-14.5100098s14.5100098,6.5,14.5100098,14.5100098
				S381.8356934,239.661438,373.8256836,239.661438z"/>
			<path class="st2" d="M405.1057129,225.1514282h-16.7700195c0-8.0100098-6.5-14.5100098-14.5100098-14.5100098v-16.7700195
				C391.0957031,193.8713989,405.1057129,207.8814087,405.1057129,225.1514282z"/>
			<g>
				<path class="st0" d="M457.0553894,232.971405h-32.8564148c-2.0820312,0-3.7698059-1.6877899-3.7698059-3.7697906v-4.9421539
					c0-2.0820007,1.6877747-3.7698059,3.7698059-3.7698059h32.8564148c2.0820007,0,3.7698059,1.6878052,3.7698059,3.7698059
					v4.9421539C460.8251953,231.2836151,459.1373901,232.971405,457.0553894,232.971405z"/>
				<path class="st2" d="M441.134613,209.5114136h-16.9356384c-2.0820312,0-3.7698059-1.6877899-3.7698059-3.7697906v-4.9421539
					c0-2.0820007,1.6877747-3.7698059,3.7698059-3.7698059h16.9356384c2.0820007,0,3.7698059,1.6878052,3.7698059,3.7698059
					v4.9421539C444.9044189,207.8236237,443.2166138,209.5114136,441.134613,209.5114136z"/>
				<path class="st0" d="M457.0553894,256.4313965h-32.8564148c-2.0820312,0-3.7698059-1.6877899-3.7698059-3.7697906v-4.9421539
					c0-2.0820007,1.6877747-3.7698059,3.7698059-3.7698059h32.8564148c2.0820007,0,3.7698059,1.6878052,3.7698059,3.7698059
					v4.9421539C460.8251953,254.7436066,459.1373901,256.4313965,457.0553894,256.4313965z"/>
			</g>
		</g>
		<path class="st3" d="M543.3179932,322.5246887h-52.3617859c-3.1582947,0-5.7185974-2.5603027-5.7185974-5.7185669V187.3819275
			c0-3.1582794,2.5603027-5.7185669,5.7185974-5.7185669h52.3617859c3.1583252,0,5.7185669,2.5602875,5.7185669,5.7185669
			v129.4241943C549.0365601,319.964386,546.4763184,322.5246887,543.3179932,322.5246887z"/>
		<line class="st1" x1="516.1287231" y1="203.2705383" x2="542.267334" y2="203.2705383"/>
		<line class="st1" x1="516.1287231" y1="235.6651001" x2="542.267334" y2="235.6651001"/>
		<line class="st1" x1="516.1287231" y1="268.0596619" x2="542.267334" y2="268.0596619"/>
		<line class="st1" x1="516.1287231" y1="300.4541931" x2="542.267334" y2="300.4541931"/>
		<g>
			<path class="st2" d="M504.9925842,209.5114136h-7.0742798c-2.0820007,0-3.7697754-1.6877899-3.7697754-3.7697906v-4.9421539
				c0-2.0820007,1.6877747-3.7698059,3.7697754-3.7698059h7.0742798c2.0820007,0,3.7698059,1.6878052,3.7698059,3.7698059v4.9421539
				C508.7623901,207.8236237,507.074585,209.5114136,504.9925842,209.5114136z"/>
			<path class="st0" d="M504.9925842,241.9059753h-7.0742798c-2.0820007,0-3.7697754-1.6878052-3.7697754-3.7698059v-4.9421539
				c0-2.0820007,1.6877747-3.7697906,3.7697754-3.7697906h7.0742798c2.0820007,0,3.7698059,1.6877899,3.7698059,3.7697906v4.9421539
				C508.7623901,240.2181702,507.074585,241.9059753,504.9925842,241.9059753z"/>
			<path class="st0" d="M504.9925842,274.3005371h-7.0742798c-2.0820007,0-3.7697754-1.6878052-3.7697754-3.7698059v-4.9421692
				c0-2.0820007,1.6877747-3.7697754,3.7697754-3.7697754h7.0742798c2.0820007,0,3.7698059,1.6877747,3.7698059,3.7697754v4.9421692
				C508.7623901,272.6127319,507.074585,274.3005371,504.9925842,274.3005371z"/>
			<path class="st0" d="M504.9925842,306.6950684h-7.0742798c-2.0820007,0-3.7697754-1.6877747-3.7697754-3.7697754v-4.9421692
				c0-2.0820007,1.6877747-3.7698059,3.7697754-3.7698059h7.0742798c2.0820007,0,3.7698059,1.6878052,3.7698059,3.7698059v4.9421692
				C508.7623901,305.0072937,507.074585,306.6950684,504.9925842,306.6950684z"/>
		</g>
		<g>
			<path class="st0" d="M353.3897705,309.1315613h-7.0742493c-2.0820007,0-3.7698059-1.6878052-3.7698059-3.7698059v-4.9421692
				c0-2.0820007,1.6878052-3.7697754,3.7698059-3.7697754h7.0742493c2.0820007,0,3.7698059,1.6877747,3.7698059,3.7697754v4.9421692
				C357.1595764,307.4437561,355.4717712,309.1315613,353.3897705,309.1315613z"/>
			<path class="st0" d="M353.3897705,341.5260925h-7.0742493c-2.0820007,0-3.7698059-1.6877747-3.7698059-3.7697754v-4.9421692
				c0-2.0820007,1.6878052-3.7698059,3.7698059-3.7698059h7.0742493c2.0820007,0,3.7698059,1.6878052,3.7698059,3.7698059v4.9421692
				C357.1595764,339.8383179,355.4717712,341.5260925,353.3897705,341.5260925z"/>
			<path class="st0" d="M353.3897705,373.9206543h-7.0742493c-2.0820007,0-3.7698059-1.6878052-3.7698059-3.7698059v-4.9421387
				c0-2.0820007,1.6878052-3.7698059,3.7698059-3.7698059h7.0742493c2.0820007,0,3.7698059,1.6878052,3.7698059,3.7698059v4.9421387
				C357.1595764,372.2328491,355.4717712,373.9206543,353.3897705,373.9206543z"/>
		</g>
		<polyline class="st1" points="364.5247498,288.4851379 364.5247498,381.633667 458.8613892,381.633667 		"/>
		<path class="st2" d="M388.3356934,300.4195862v69.7312622c0,2.0820007-1.6878052,3.7698059-3.7698059,3.7698059h-4.9421387
			c-2.0820007,0-3.7698059-1.6878052-3.7698059-3.7698059v-69.7312622c0-2.0820007,1.6878052-3.7697754,3.7698059-3.7697754
			h4.9421387C386.6478882,296.6498108,388.3356934,298.3375854,388.3356934,300.4195862z"/>
		<path class="st2" d="M411.3465576,317.2054138v52.9454041c0,2.0820007-1.6878052,3.7698059-3.7698059,3.7698059h-4.9421387
			c-2.0820007,0-3.7698059-1.6878052-3.7698059-3.7698059v-52.9454041c0-2.0820007,1.6878052-3.7697754,3.7698059-3.7697754
			h4.9421387C409.6587524,313.4356384,411.3465576,315.1234131,411.3465576,317.2054138z"/>
		<path class="st2" d="M434.3574524,331.3208313v38.8299866c0,2.0820007-1.6878052,3.7698059-3.7698059,3.7698059h-4.9421387
			c-2.0820007,0-3.7698059-1.6878052-3.7698059-3.7698059v-38.8299866c0-2.0820007,1.6878052-3.7698059,3.7698059-3.7698059
			h4.9421387C432.6696472,327.5510254,434.3574524,329.2388306,434.3574524,331.3208313z"/>
		<path class="st0" d="M455.0915833,309.1315613h-29.4460754c-2.0820007,0-3.7698059-1.6878052-3.7698059-3.7698059v-4.9421692
			c0-2.0820007,1.6878052-3.7697754,3.7698059-3.7697754h29.4460754c2.0820007,0,3.7698059,1.6877747,3.7698059,3.7697754v4.9421692
			C458.8613892,307.4437561,457.173584,309.1315613,455.0915833,309.1315613z"/>
	</g>
</g>
<g id="DASHBOARD_1">
	<path class="st2" d="M268.4439392,224.5762634H145.000885c-3.8915558,0-7.0462646-3.1547241-7.0462646-7.0462646v-22.2857513
		c0-3.8915405,3.1547089-7.0462646,7.0462646-7.0462646h123.4430542c3.8915405,0,7.0462646,3.1547241,7.0462646,7.0462646
		v22.2857513C275.4902039,221.4215393,272.3354797,224.5762634,268.4439392,224.5762634z"/>
</g>
<g id="LEFT_ARM">
	<g>
		<g>
			<polygon class="st3" points="55.7090111,395.2649536 69.9177628,411.4361267 84.5947723,394.3032837 63.9467583,384.5202332 			
				"/>
			<path class="st3" d="M69.3937531,394.3070374l-4.8367157,5.6152954
				c-1.3951263,1.6196899-1.4383583,4.0035095-0.1028748,5.6727295l4.6411743,5.8010254
				c0.7936249,0.9919434,1.9740601,1.5965576,3.2427902,1.6608887h0.0000076
				c1.3379211,0.0678711,2.6349869-0.4718628,3.5298462-1.4687805l6.281456-6.9979248
				c1.2086105-1.3464661,1.4795303-3.2915344,0.6848755-4.9170227l-0.7092133-1.4506836
				c-0.4008713-0.8200073-1.0446548-1.4965515-1.84375-1.9376221l-5.3767014-2.9676514
				C73.0648651,392.3018188,70.7651901,392.7148438,69.3937531,394.3070374z"/>
			<path class="st3" d="M73.3134918,390.3015137h0.0000076c0.8241959-1.1175842,2.2880173-1.5555725,3.5905838-1.0743713
				l5.563118,2.0552368c1.7185516,0.6348877,3.0690231,1.9963074,3.6900482,3.7199097l0.6393967,1.7745972
				c0.3939819,1.0934753,0.1471863,2.3153076-0.6403275,3.1701355l-0.2610016,0.2833252
				c-0.5718384,0.620697-1.370842,0.9831543-2.2145386,1.0045471l-0.9573441,0.024292
				c-1.8207703,0.0461731-3.5699997-0.7093201-4.7846298-2.0665283l-4.4393082-4.9604492
				C72.5143356,393.1314087,72.4366837,391.4904175,73.3134918,390.3015137z"/>
			<path class="st3" d="M63.9467583,384.5202332l13.8483162,2.7234192c1.2885361,0.253418,2.3415298,1.179657,2.7572174,2.425354
				l0,0c0.4187241,1.2547913,0.1255798,2.6379089-0.7661514,3.6149597l-6.2455292,6.8429565
				c-0.8872986,0.972168-2.3743286,1.0952148-3.4093399,0.282074l0,0c-0.9110489-0.7157593-1.2148438-1.9614868-0.7355804-3.0162964
				l1.5642929-3.4427795l-5.1766129,0.4935608c-0.9373627,0.089386-1.8460617-0.3526611-2.3543816-1.1452942l-2.9102631-4.5379639
				L63.9467583,384.5202332z"/>
		</g>
		<g>
			<path class="st2" d="M103.5245514,284.0940247c9.8934097,18.8321838-37.5539703,61.6730957-37.5539703,61.6730957
				s3.3476257,23.7233276,5.9746933,39.2997742L54.729435,397.3626709c0,0-16.440258-28.3755188-20.0189362-47.8995667
				c-0.8746834-4.7832947-1.6670074-9.5003662-2.2775841-13.8374023c0,0,2.5754547-4.885376,7.1005287-11.950531
				c7.5380325-11.7745667,25.7826805-36.350647,41.2524376-47.695282
				C80.785881,275.9798889,93.6329117,265.2650146,103.5245514,284.0940247z"/>
			<circle class="st3" cx="57.3659744" cy="392.0333862" r="1.6931562"/>
			<path class="st4" d="M43.8340263,339.0599976c-1.5191498,5.3026733-5.1501579,9.2190857-9.1235275,10.4031067
				c-0.8746834-4.7832947-1.6670074-9.5003662-2.2775841-13.8374023c0,0,2.5754547-4.885376,7.1005287-11.950531
				C43.7784538,326.1871338,45.6906128,332.5794678,43.8340263,339.0599976z"/>
			<line class="st1" x1="46.2874947" y1="341.7945862" x2="64.056076" y2="345.6185913"/>
			<line class="st1" x1="54.1852951" y1="388.407074" x2="65.9660873" y2="385.2570496"/>
		</g>
	</g>
</g>
<g id="LEFT_CALF">
	<g>
		<g>
			<polygon class="st3" points="85.531868,467.9311523 61.4256058,470.1938171 65.6775436,459.7939453 85.8599091,456.552948 			"/>
			<g>
				<path class="st0" d="M48.5078125,497.1922913c0.9248924-1.3226013,2.4781761-4.3954468,3.5074654-5.6138916
					c7.9634247-9.428772,15.3957329-15.7812195,18.8116341-18.5836792l-3.4773788-17.7140198
					c-11.9679604,0.980011-23.0995331,2.6517029-29.5268326,3.7253723
					c-3.5816994,0.5960999-5.7038383,1.0091248-5.7038383,1.0091248l5.4495468,42.2096863l4.1005898-0.5294189
					C44.3339806,501.3513794,46.7314377,499.73172,48.5078125,497.1922913z"/>
				
					<ellipse transform="matrix(0.9917685 -0.1280438 0.1280438 0.9917685 -59.7945023 10.925127)" class="st4" cx="55.0749207" cy="470.5252075" rx="6.3408413" ry="4.2941346"/>
				<path class="st4" d="M41.6675911,501.6956482l-4.0998688,0.5292969l-5.4494019-42.2085571
					c0,0,2.122467-0.4131775,5.7042542-1.0115967l4.6743011,36.2049866c0,0,4.6686935-0.4098511,8.4380188-2.0539551
					c-0.8576164,1.3915405-1.790947,3.1280823-2.4264297,4.0355225
					C46.7303276,499.7327271,44.3334122,501.3514709,41.6675911,501.6956482z"/>
				<path class="st1" d="M41.6675911,501.6956482l-4.0998688,0.5292969l-5.4494019-42.2085571
					c0,0,2.122467-0.4131775,5.7042542-1.0115967l4.6743011,36.2049866c0,0,4.6686935-0.4098511,8.4380188-2.0539551
					c-0.8576164,1.3915405-1.790947,3.1280823-2.4264297,4.0355225
					C46.7303276,499.7327271,44.3334122,501.3514709,41.6675911,501.6956482z"/>
			</g>
		</g>
		<g>
			<path class="st0" d="M164.677597,471.8690186l-7.1782227-0.0714417l-74.2199249-0.7729797l-2.4456329-18.942749
				l52.3329926-11.6972351c31.8811646-8.8348999,44.2028503,3.4283142,46.1573944,13.8034973
				c0.5210724,2.7861633,0.2998962,5.4464417-0.5017548,7.5160522
				C175.0688324,471.4450378,164.677597,471.8690186,164.677597,471.8690186z"/>
			<path class="st4" d="M164.677597,471.8690186l-7.1782227-0.0714417c-0.0733185-0.333374-0.1280518-0.6791992-0.1728668-1.0262756
				c-1.1216736-8.6879272,5.0108032-16.6386108,13.6887817-17.7590027c2.9256744-0.3777161,5.7766113,0.0709229,8.3089142,1.1758118
				c0.5210724,2.7861633,0.2998962,5.4464417-0.5017548,7.5160522
				C175.0688324,471.4450378,164.677597,471.8690186,164.677597,471.8690186z"/>
			<line class="st1" x1="159.9043884" y1="454.2445374" x2="90.6248398" y2="461.6056824"/>
			<line class="st1" x1="149.9888" y1="437.4338074" x2="159.9043884" y2="454.2445374"/>
			<line class="st1" x1="87.3469086" y1="453.8464661" x2="89.2789764" y2="468.8113708"/>
		</g>
	</g>
</g>
<g id="LEFT_THIGH">
	<g>
		<path class="st0" d="M179.6095886,454.1062317c0,0.5-0.0200195,1.0100098-0.0800171,1.5200195
			c0,0.0099487,0,0.0199585,0,0.0199585c-0.039978,0.5200195-0.1199951,1.0300293-0.2199707,1.5499878
			c-2.0200195,8.2900391-9.25,14.210022-17.6900024,14.6400146c-0.3300171,0.0200195-0.6599731,0.0300293-0.9899902,0.0300293
			h-0.7000122c-0.4899902,0-0.9799805-0.0200195-1.460022-0.0599976c-0.3299561-0.0200195-0.6599731-0.0500488-0.9899902-0.1000366
			c-3.4299927-0.4400024-6.6900024-1.7999878-9.4299927-3.9500122l-56.9799805-44.789978
			c-6.6099854-5.4500122-10.1300049-13.7799683-9.4400024-22.3200073l1.7700195-42.8499756l52.0899658-1.6400146
			l-2.1199951,42.6199951l41.1400146,43.5100098C177.7995911,445.3862,179.6095886,449.676239,179.6095886,454.1062317z"/>
		<polygon class="st1" points="106.8255768,403.4940186 97.8436508,406.6456909 88.8617249,403.4940186 88.8617249,385.4012451 
			106.8255768,385.4012451 		"/>
		<path class="st4" d="M179.5295715,455.6262512c0,0.0099487,0,0.0199585,0,0.0199585
			c-0.039978,0.5200195-0.1199951,1.0300293-0.2199707,1.5499878c-2.0200195,8.2900391-9.25,14.210022-17.6900024,14.6400146
			l-3.1500244-0.0299683l-0.9699707-0.0100098c-0.0100098-0.0300293-0.0100098-0.0599976-0.0200195-0.0900269
			c-0.0599976-0.2999878-0.1099854-0.6199951-0.1499634-0.9299927c-1.1199951-8.6900024,5.0099487-16.6400146,13.6900024-17.7600098
			c2.9199829-0.3800049,5.7699585,0.0700073,8.2999878,1.1700439
			C179.4095764,454.676239,179.4795837,455.1562195,179.5295715,455.6262512z"/>
		<path class="st1" d="M179.3242035,454.1881104c0.5210724,2.7861633,0.2998962,5.4464417-0.5017548,7.5160522
			c-3.7536163,9.7408752-14.1448517,10.164856-14.1448517,10.164856l-7.1782227-0.0714417"/>
		<polyline class="st1" points="126.6901474,420.3803101 159.2629395,453.8999939 134.318985,456.9630432 		"/>
	</g>
</g>
<g id="RIGHT_THIGH">
	<g>
		<g>
			<path class="st0" d="M131.5148621,423.8050232l0.0000305,0.0000305
				c7.5042725,4.1220398,16.5497131,4.3152161,24.223114,0.5172729l59.609314-31.4049683
				c6.8693542-3.6191101,11.9500732-9.9015198,14.0522461-17.3759155l0.0000153-0.0000305
				c1.8710938-6.6528015-0.6616058-13.7619629-6.3175812-17.7331848l-0.0000153-0.0000305
				c-4.5541992-3.1976013-10.4260559-3.8478699-15.5695343-1.7241821l-42.6527557,15.4026794l-1.8555145-18.5349121
				l-45.5325012,12.1188354l0.467598,36.2051392C118.0909348,410.6783142,123.2726517,419.2776184,131.5148621,423.8050232z"/>
			<polygon class="st1" points="141.584198,403.4940186 132.6022797,406.6456909 123.6203461,403.4940186 123.6203461,385.4012451 
				141.584198,385.4012451 			"/>
			<path class="st1" d="M117.4716797,365.0706177l0.467598,36.2051392
				c0.1516571,9.4025574,5.333374,18.0018616,13.5755844,22.5292664l0.0000305,0.0000305
				c3.6921692,2.0280762,7.757431,3.1051025,11.8488007,3.2236023c0,0,3.7044983,0.0892639,6.160675-0.5545349
				c2.4561615-0.6438293,5.422226-1.778595,5.422226-1.778595"/>
			<polyline class="st1" points="146.7411957,368.4845276 147.4668274,395.4000854 211.8698883,374.751709 			"/>
			<path class="st1" d="M147.4668274,395.4000854l4.0552368-5.3427734c2.5903625-3.4128113,4.000824-7.5753479,4.018692-11.8598328
				l0.0404663-9.7129517"/>
		</g>
	</g>
</g>
<g id="RIGHT_CALF">
	<g>
		<g>
			<polygon class="st3" points="215.9208984,450.2645264 215.0782928,474.4620667 205.3084717,468.9135132 204.6783752,448.4822693 
							"/>
			<g>
				<path class="st0" d="M240.20047,490.7305298c-1.1932678-1.0866394-4.0419464-3.0205994-5.1185608-4.1974182
					c-8.3314819-9.1051636-13.6799927-17.2897034-16.0220032-21.0363159l-18.013443,1.1805725
					c-0.5605011,11.9949341-0.3278961,23.2489319-0.0860291,29.7608032c0.1325836,3.62854,0.2704773,5.7861023,0.2704773,5.7861023
					h42.5599976v-4.1346436C243.7909088,495.4025269,242.4915619,492.8174438,240.20047,490.7305298z"/>
				<ellipse class="st4" cx="214.5937653" cy="480.8029175" rx="4.2941346" ry="6.3408413"/>
				<path class="st4" d="M243.7909088,498.0910645v4.1338806h-42.5588837c0,0-0.1380157-2.1578979-0.2728729-5.7868042h36.5054779
					c0,0,0.19133-4.6827393-0.9566193-8.6315613c1.2702789,1.028717,2.8730011,2.1767273,3.6916199,2.9231873
					C242.4924011,492.8186646,243.7909088,495.4031067,243.7909088,498.0910645z"/>
				<path class="st1" d="M243.7909088,498.0910645v4.1338806h-42.5588837c0,0-0.1380157-2.1578979-0.2728729-5.7868042h36.5054779
					c0,0,0.19133-4.6827393-0.9566193-8.6315613c1.2702789,1.028717,2.8730011,2.1767273,3.6916199,2.9231873
					C242.4924011,492.8186646,243.7909088,495.4031067,243.7909088,498.0910645z"/>
			</g>
		</g>
		<g>
			<path class="st0" d="M229.960495,372.2745056l-0.9899902,7.1099854l-10.2700195,73.5100098h-19.0999756l-4.9000244-53.3999634
				c-4.6799927-32.75,9.0599976-43.4000244,19.6000366-44.0100098c2.8299561-0.1600342,5.4400024,0.3999634,7.3899536,1.460022
				C230.8705292,361.9145203,229.960495,372.2745056,229.960495,372.2745056z"/>
			<path class="st4" d="M229.960495,372.2745056l-0.9899902,7.1099854c-0.3400269,0.0300293-0.6900024,0.0400391-1.039978,0.0400391
				c-8.7600098,0-15.8600464-7.1000366-15.8600464-15.8500366c0-2.9499512,0.8099976-5.7199707,2.2300415-8.0899658
				c2.8299561-0.1600342,5.4400024,0.3999634,7.3899536,1.460022
				C230.8705292,361.9145203,229.960495,372.2745056,229.960495,372.2745056z"/>
			<path class="st1" d="M214.3005219,355.4845276c2.8299561-0.1600342,5.4400024,0.3999634,7.3899536,1.460022
				c9.1800537,4.9699707,8.2700195,15.3299561,8.2700195,15.3299561l-0.9899902,7.1099854"/>
			<line class="st1" x1="211.8698883" y1="374.751709" x2="210.2996368" y2="444.4035339"/>
			<line class="st1" x1="194.1133118" y1="380.4446716" x2="211.8698883" y2="374.751709"/>
			<line class="st1" x1="202.1845551" y1="446.6609497" x2="217.2736664" y2="446.6609497"/>
		</g>
	</g>
</g>
<g id="NECK">
	<polygon class="st3" points="107.0537872,268.5042725 106.5692444,255.8153839 115.2524414,256.451355 116.9808044,266.5625305 	
		"/>
</g>
<g id="HEAD">
	<g>
		<path class="st3" d="M110.3095551,253.6988678c0,0,5.2582092,5.0970001,11.3118973,3.9128571
			c6.053688-1.1841125,5.7013626-26.9488678-5.4835815-26.944931S100.4767456,244.2766876,110.3095551,253.6988678z"/>
		<path class="st5" d="M121.8309937,244.520752c0,0-2.1020432-4.7555695-5.3497696-2.8419342
			s-1.9487152,7.4654541,0.8761902,8.5641174l-2.1049728,6.2084198l-8.5947189,1.6811523
			c0,0-8.7482147-7.9205933-10.7130356-13.6085052c-1.9648209-5.6879272,3.5881348-7.2534943,3.5881348-7.2534943
			s0.0426254-5.2283325,3.9762268-6.9032745c3.9336014-1.6749268,15.6817398-1.5227051,15.6817398-1.5227051
			s1.5108032-3.9175568,3.3652191-4.2403412s2.5685577,3.5324249,2.5685577,3.5324249s1.8068924-3.6292419,3.4956436-2.9608459
			s1.6856079,14.1318207-6.3609467,13.2289124C122.2592621,238.4046783,124.3239212,243.5137787,121.8309937,244.520752z"/>
	</g>
</g>
<g id="BODY">
	<g>
		<path class="st3" d="M99.7715988,270.4879761c0,0,1.1813736-6.6228943,10.4158096-8.4291992
			c9.2344437-1.8062744,13.9867859,5.3338318,13.9867859,5.3338318l-24.0864944,4.7113953L99.7715988,270.4879761z"/>
		<path class="st2" d="M166.7632751,366.390564c-3.5999603,2.100769-7.348175,3.9173584-11.1820526,5.4758301l-2.399353-12.2664185
			c-0.151123-0.772583-0.6023712-1.4129944-1.206543-1.8221436c-0.6066284-0.4054871-1.369873-0.5821838-2.1424866-0.4310303
			c-1.5482941,0.3028259-2.5591278,1.8013-2.2562714,3.3496094l2.5811768,13.1960144
			c-34.6943588,11.8646545-73.9288025,5.0934753-73.9288025,5.0934753
			c-3.5132065-65.3596191,7.7986984-104.434021,7.7986984-104.434021
			c16.5309753-7.4744873,63.6160355-12.443512,63.6160355-12.443512
			C156.4498901,302.7828979,166.7632751,366.390564,166.7632751,366.390564z"/>
		<path class="st1" d="M83.3973465,276.9632568c-1.1652832,4.7179565-3.7087097,16.2459717-5.5851593,33.583313l-1.47229,17.4496765
			"/>
		<path class="st1" d="M108.268013,274.7118835c0,0-7.6024323,41.3294983,0.9067307,94.6348877"/>
		<path class="st1" d="M156.2960663,365.4471741c2.2029114-0.7662354,4.4396057-1.5899658,6.7081146-2.4749451"/>
		<path class="st1" d="M80.1380386,372.7008362c0,0,26.6658478,7.28479,66.603157-4.2163086"/>
	</g>
</g>
<g id="RIGHT_ARM">
	<g>
		<path class="st3" d="M218.6206512,237.8851318l-5.0470581-8.1951294
			c-1.5610962-2.2955017-2.4954529-4.9589844-2.7105255-7.7266846l-0.458374-5.8985901
			c-0.065155-0.8383331,0.6078186-1.5496368,1.4484863-1.5309753l0,0c0.5444641,0.012085,1.0341339,0.3342133,1.2607727,0.8294067
			l3.0382233,6.6381989l0.3178864-8.355423l1.5310211-9.7360077c0.1491547-0.9484253,1.0128784-1.6153564,1.9681854-1.5197601l0,0
			c0.9027557,0.0903473,1.5991211,0.8351135,1.6287079,1.7418976l0.3284912,10.0680084
			c0.0163574,0.5015869,0.3985291,0.9151001,0.8972778,0.9708557l0,0c0.5359344,0.0599213,1.0243988-0.3117218,1.1096039-0.844223
			l1.3638306-8.5241394c0.2257996-1.4112701,1.8335571-2.1183929,3.0263519-1.3310394l5.5938873,3.6924744
			c1.2072601,0.7969055,1.9181671,2.16008,1.8806305,3.6061401l-0.3435669,9.6120911
			c-0.0591888,1.6561584-0.3844757,3.2919922-0.9633636,4.8448181l-6.0886078,16.5853424L218.6206512,237.8851318z"/>
		<g>
			<path class="st2" d="M135.3236542,278.7970581c0.7960358-6.2851562,4.3832397-13.9315491,11.8785858-16.6288757
				c12.3047485-0.7005615,42.21138-1.499115,42.21138-1.499115s16.6401062-15.7783966,26.5778046-26.1136475l14.5787201,6.1116486
				c0,0-7.4803314,17.0214386-15.1961823,33.9160614c-1.8919373,4.1380005-3.811554,8.1810608-5.6669922,11.8352051
				c0,0-4.593277,2.3677063-11.8500671,5.362915c-12.0914001,4.9934998-31.5825043,11.7295532-49.5280914,12.1433716
				C148.3288116,303.9246216,132.8229828,298.5410461,135.3236542,278.7970581z"/>
			<path class="st1" d="M148.3288116,303.9246216c0,0-15.5058289-5.3835754-13.0051575-25.1275635
				c0.659317-5.205658,3.2333527-11.3451233,8.3567505-14.8330688"/>
			<circle class="st3" cx="225.6921692" cy="243.3425446" r="1.5843005"/>
			<path class="st4" d="M202.8011322,277.6750793c4.0065765-3.2537842,8.8903961-4.3125916,12.5728302-3.0919495
				c-1.8919373,4.1380005-3.811554,8.1810608-5.6669922,11.8352051c0,0-4.593277,2.3677063-11.8500671,5.362915
				C195.9464264,287.5797729,197.9046326,281.6515808,202.8011322,277.6750793z"/>
			<line class="st1" x1="202.3842773" y1="274.2627563" x2="190.8026733" y2="261.8088074"/>
			<line class="st1" x1="226.1891174" y1="247.8285675" x2="212.9739075" y2="241.7434692"/>
		</g>
	</g>
</g>
<g id="ORNAMENT">
	<g>
		<path class="st2" d="M351.592804,482.999115c-3.5747986,0-6.8059082,1.4512634-9.14328,3.7886353
			c-2.3450317,2.3373718-3.7886658,5.5760803-3.7886658,9.14328c0-3.5671997-1.4436646-6.8059082-3.7886963-9.14328
			c-2.3373718-2.3373718-5.5684204-3.7886353-9.14328-3.7886353c3.5748596,0,6.8059082-1.451355,9.14328-3.7886963
			c2.3450317-2.3373718,3.7886963-5.5760803,3.7886963-9.14328c0,3.5671997,1.443634,6.8059082,3.7886658,9.14328
			C344.7868958,481.54776,348.0180054,482.999115,351.592804,482.999115z"/>
		<path class="st2" d="M53.6027603,432.1264648c-1.3709145,0-2.6100235,0.5565491-3.5063896,1.4529419
			c-0.8992996,0.8963623-1.4529266,2.1383667-1.4529266,3.5063782c0-1.3680115-0.5536423-2.6100159-1.4529419-3.5063782
			c-0.8963661-0.8963928-2.1354599-1.4529419-3.5063896-1.4529419c1.3709297,0,2.6100235-0.5565796,3.5063896-1.4529419
			c0.8992996-0.8963623,1.4529419-2.1383972,1.4529419-3.5063782c0,1.367981,0.553627,2.6100159,1.4529266,3.5063782
			C50.9927368,431.5698853,52.2318459,432.1264648,53.6027603,432.1264648z"/>
		<path class="st0" d="M94.5051422,161.5327759c-2.7956772,0-5.3225708,1.1349792-7.1505127,2.9629211
			c-1.8339233,1.8279419-2.9629211,4.3607788-2.9629211,7.1505127c0-2.7897339-1.1290359-5.3225708-2.9629593-7.1505127
			c-1.8279495-1.8279419-4.354805-2.9629211-7.1505203-2.9629211c2.7957153,0,5.3225708-1.1350098,7.1505203-2.9629669
			c1.8339233-1.8279419,2.9629593-4.3607788,2.9629593-7.1505127c0,2.7897339,1.1289978,5.3225708,2.9629211,7.1505127
			C89.1825714,160.3977661,91.709465,161.5327759,94.5051422,161.5327759z"/>
		<path class="st0" d="M297.7699585,440.214386c-1.787384,0-3.4029541,0.725647-4.5716248,1.8943481
			c-1.1725159,1.1686707-1.8943176,2.7880249-1.8943176,4.5716248c0-1.7835999-0.7218628-3.4029541-1.8943481-4.5716248
			c-1.1687012-1.1687012-2.7842407-1.8943481-4.5716553-1.8943481c1.7874146,0,3.4029541-0.725647,4.5716553-1.8943481
			c1.1724854-1.1686707,1.8943481-2.7880249,1.8943481-4.5716248c0,1.7835999,0.7218018,3.4029541,1.8943176,4.5716248
			C294.3670044,439.488739,295.9825745,440.214386,297.7699585,440.214386z"/>
		<path class="st2" d="M51.3194122,259.5665894c-1.3909798,0-2.6482277,0.5646973-3.5577164,1.4741821
			c-0.9124641,0.9094849-1.4741936,2.1697083-1.4741936,3.5577087c0-1.3880005-0.5617485-2.6482239-1.4742126-3.5577087
			c-0.9094849-0.9094849-2.1667175-1.4741821-3.5577164-1.4741821c1.3909988,0,2.6482315-0.5647278,3.5577164-1.4742126
			c0.9124641-0.9094849,1.4742126-2.169693,1.4742126-3.557724c0,1.388031,0.5617294,2.6482391,1.4741936,3.557724
			C48.6711845,259.0018616,49.9284325,259.5665894,51.3194122,259.5665894z"/>
		<circle class="st0" cx="379.8875427" cy="438.0071106" r="2.2072902"/>
		<circle class="st2" cx="555.4088135" cy="475.0966492" r="3.1659524"/>
	</g>
</g>
</svg>
