<?xml version="1.0" encoding="utf-8"?>
<!-- Generator: Adobe Illustrator 25.3.1, SVG Export Plug-In . SVG Version: 6.00 Build 0)  -->
<svg version="1.1" xmlns="http://www.w3.org/2000/svg" xmlns:xlink="http://www.w3.org/1999/xlink" x="0px" y="0px"
	 viewBox="0 0 600 600" style="enable-background:new 0 0 600 600;" xml:space="preserve">
<style type="text/css">
	.st0{fill:#FFFFFF;stroke:#262424;stroke-width:1.7994;stroke-linecap:round;stroke-linejoin:round;stroke-miterlimit:10;}
	.st1{fill:#88C0C2;stroke:#262424;stroke-width:1.8896;stroke-linecap:round;stroke-linejoin:round;stroke-miterlimit:10;}
	.st2{fill:#FFFFFF;stroke:#262424;stroke-width:1.5924;stroke-linecap:round;stroke-linejoin:round;stroke-miterlimit:10;}
	.st3{fill:#88C0C2;}
	.st4{fill:#DE9244;}
	.st5{fill:none;stroke:#262424;stroke-width:1.7994;stroke-linecap:round;stroke-linejoin:round;stroke-miterlimit:10;}
	.st6{fill:#262424;}
	.st7{fill:#FFFFFF;}
	.st8{fill:#DE9244;stroke:#DE9244;stroke-width:1.6806;stroke-linecap:round;stroke-linejoin:round;stroke-miterlimit:10;}
	.st9{fill:none;stroke:#262424;stroke-width:1.6754;stroke-linecap:round;stroke-linejoin:round;stroke-miterlimit:10;}
	.st10{fill:#FFFFFF;stroke:#262424;stroke-width:1.8896;stroke-linecap:round;stroke-linejoin:round;stroke-miterlimit:10;}
	.st11{fill:none;stroke:#262424;stroke-width:1.8896;stroke-linecap:round;stroke-linejoin:round;stroke-miterlimit:10;}
	.st12{fill:#DE9244;stroke:#DE9244;stroke-width:1.7648;stroke-linecap:round;stroke-linejoin:round;stroke-miterlimit:10;}
	.st13{fill:#88C0C2;stroke:#88C0C2;stroke-width:1.8896;stroke-linecap:round;stroke-linejoin:round;stroke-miterlimit:10;}
	.st14{fill:none;stroke:#262424;stroke-width:1.6086;stroke-linecap:round;stroke-linejoin:round;stroke-miterlimit:10;}
	.st15{fill:#FFFFFF;stroke:#262424;stroke-width:1.6086;stroke-linecap:round;stroke-linejoin:round;stroke-miterlimit:10;}
	.st16{fill:#DE9244;stroke:#DE9244;stroke-width:1.5707;stroke-linecap:round;stroke-linejoin:round;stroke-miterlimit:10;}
	.st17{fill:#FFFFFF;stroke:#262424;stroke-width:1.5707;stroke-linecap:round;stroke-linejoin:round;stroke-miterlimit:10;}
	.st18{fill:#FFFFFF;stroke:#262424;stroke-width:1.6754;stroke-linecap:round;stroke-linejoin:round;stroke-miterlimit:10;}
	.st19{fill:#88C0C2;stroke:#88C0C2;stroke-width:1.6754;stroke-linecap:round;stroke-linejoin:round;stroke-miterlimit:10;}
	.st20{fill:#DE9244;stroke:#DE9244;stroke-width:1.5648;stroke-linecap:round;stroke-linejoin:round;stroke-miterlimit:10;}
</style>
<g id="STEP_1">
	<g>
		<path class="st0" d="M189.61,163.02v273.95c0,6.97-5.65,12.63-12.63,12.63H31.37c-6.97,0-12.63-5.65-12.63-12.63V163.02
			c0-6.97,5.65-12.63,12.63-12.63h145.61C183.95,150.4,189.61,156.05,189.61,163.02z"/>
		<path class="st1" d="M189.61,344.88v92.09c0,6.97-5.65,12.63-12.63,12.63H31.37c-6.97,0-12.63-5.65-12.63-12.63v-92.09H189.61z"/>
		<path class="st2" d="M135.63,386.72h-62.9c-3.55,0-6.43-2.88-6.43-6.43v-0.8c0-3.55,2.88-6.43,6.43-6.43h62.9
			c3.55,0,6.43,2.88,6.43,6.43v0.8C142.06,383.84,139.18,386.72,135.63,386.72z"/>
		<path class="st2" d="M119.65,410.9H88.7c-3.55,0-6.43-2.88-6.43-6.43v-0.8c0-3.55,2.88-6.43,6.43-6.43h30.95
			c3.55,0,6.43,2.88,6.43,6.43v0.8C126.08,408.02,123.2,410.9,119.65,410.9z"/>
		<g>
			<path class="st2" d="M95.93,438.26H85.74c-1.17,0-2.12-0.95-2.12-2.12v-0.26c0-1.17,0.95-2.12,2.12-2.12h10.18
				c1.17,0,2.12,0.95,2.12,2.12v0.26C98.05,437.31,97.1,438.26,95.93,438.26z"/>
			<circle class="st2" cx="108.21" cy="436" r="2.25"/>
			<circle class="st2" cx="122.47" cy="436" r="2.25"/>
		</g>
	</g>
</g>
<g id="WOMAN_3_STARS">
	<g>
		<circle class="st3" cx="45.49" cy="169.37" r="6.1"/>
		<circle class="st3" cx="169.46" cy="243.48" r="8.13"/>
		<circle class="st3" cx="136.94" cy="180.65" r="4.61"/>
	</g>
</g>
<g id="WOMAN_3_LEFT_UPPER_ARM">
	<g>
		<path class="st0" d="M101.58,282.82l6.26,26.9c0,0,1.5,6.65,7.85,6.67c0.06,0,0.12,0,0.18,0c5.08-0.02,8.94-4.6,8.26-9.63
			c-1.39-10.32-4.68-28.73-4.68-28.73L101.58,282.82z"/>
		<g>
			<g>
				<path class="st4" d="M123,285.63l-27.86,7.47c-5.07-19.69-6.67-41.74-0.25-47.46C112.49,229.96,120.24,263.98,123,285.63z"/>
				<line class="st5" x1="95.45" y1="289.53" x2="119.95" y2="282.82"/>
			</g>
		</g>
	</g>
</g>
<g id="WOMAN_3_HAIR">
	<path class="st6" d="M63.51,186.86c5.08,0.81,3.44,11.36,2.47,14.81c-0.97,3.45,3.32,11.69-1.94,15.97
		c-5.26,4.28,8.49,13.55-3.7,29.08c-9.4,11.97-30.87,9.46-30.44-1.27c0.43-10.74,15.5-19.1,15.77-28.93
		c0.17-6.25-4.28-14.22,4.8-19.55C57.26,192.98,59.51,186.21,63.51,186.86z"/>
</g>
<g id="WOMAN_3_BODY">
	<g>
		<g>
			<path class="st4" d="M110.83,343.89H29.72l12.66-59.81l1.67-41.59c0,0,17.8-11.66,32-11.66c10.7,0,29.06,10.9,29.06,10.9
				l0.59,7.04c0,0,4.81,13.29,4.81,18.29c0,5.01-8.54,16.49-8.54,16.49S108.34,324.48,110.83,343.89z"/>
			<line class="st0" x1="34.44" y1="339.62" x2="108.7" y2="339.62"/>
			<path class="st5" d="M105.29,243.82l0.41,4.95c0,0,4.81,13.29,4.81,18.3c0,5.01-8.54,16.5-8.54,16.5s0.44,2.85,1.13,7.4"/>
			<g>
				<path class="st0" d="M75.23,227.62c6.01,0.39,9.43,4.39,9.82,7.66c0.39,3.27-1.96,6.28-4.19,6.94c0,0-2.23-6.22-3.93-6.22
					c-1.7,0-2.95,7.2-2.95,7.2s-8.05,0-10.21-6.87C62.29,231.58,68.23,227.16,75.23,227.62z"/>
			</g>
		</g>
		<g>
			<g>
				<path class="st0" d="M79.16,231.54c0,0-0.21,2.06-2.78,3.05c0,0-4.04,0.19-7.09-3.05l0.72-13.06l2.44,0.51l5.95,1.25l0.63,9.39
					L79.16,231.54z"/>
			</g>
			<path class="st6" d="M79.03,229.64c-7.13-0.7-7.72-9.79-7.72-9.79c0.38-0.32,0.76-0.6,1.15-0.85l5.95,1.25L79.03,229.64z"/>
		</g>
	</g>
</g>
<g id="WOMAN_3_LEFT_ARM">
	<g>
		<path class="st7" d="M114.67,304.23c-6.33,0.51-6.83,5.48-6.83,5.48l-0.13,12.11c0,0-3.58-1.27-5.04,2.1
			c-1.46,3.37-0.94,14.54,1.31,14.54c2.25,0,2.92-4.79,2.92-4.79s0.3,5.1,3.6,5.1c3.3,0,8.25-1.05,9.9-3.6
			c1.65-2.55,0.9-9.3,0.9-9.3c0.82-2.33,2.7-8.24,3.41-12.53c0.06-0.34,0.03-1.05-0.05-2.01
			C123.78,307.71,120.82,303.74,114.67,304.23z"/>
		<path class="st5" d="M107.83,309.72l-0.13,12.11c0,0-3.58-1.27-5.04,2.1c-1.46,3.37-0.94,14.54,1.31,14.54
			c2.25,0,2.92-4.79,2.92-4.79s0.3,5.1,3.6,5.1c3.3,0,8.25-1.05,9.9-3.6c1.65-2.55,0.9-9.3,0.9-9.3c0.82-2.33,2.7-8.24,3.41-12.53
			c0.06-0.34,0.03-1.05-0.05-2.01c-0.14-0.6-0.35-1.21-0.61-1.8"/>
	</g>
</g>
<g id="WOMAN_3_RIGHT_UPPER_ARM">
	<g>
		<path class="st0" d="M52.58,290.96c6.2-20.93,14.1-55.04-8.54-48.47c-6.8,1.97-13.49,23.81-16.79,43.87
			c-1.69,10.29-2.48,20.09-1.94,26.52c0.34,4.05,3.45,7.44,7.51,7.76c6.43,0.51,12.14-4.82,15.56-14.44
			C48.38,306.2,49.89,300.04,52.58,290.96z"/>
		<g>
			<path class="st8" d="M53.65,290.42l-28.51-4.39c3.3-20.06,10.71-40.89,18.9-43.54C66.47,235.24,59.85,269.5,53.65,290.42z"/>
			<path class="st5" d="M48.47,241.55c15.74-1.31,11.74,24.91,6.5,44.22"/>
			<line class="st5" x1="26.87" y1="282.89" x2="51.99" y2="286.62"/>
		</g>
	</g>
</g>
<g id="WOMAN_3_RIGHT_ARM">
	<g>
		<path class="st7" d="M98.45,321.2c-1.46,0.03-11.1,4.01-11.1,4.01l-38.97-20.45c-12.97-8.42-25.3-2.49-21.99,12.04
			c0.2,0.48,0.41,0.91,0.65,1.23c6.06,8.08,55.97,15.3,55.97,15.3s2.19,0.4,4.07,3.88c1.88,3.48,6.72,4.3,11.14,1.68
			c4.42-2.62,3.73-4.87,3.73-4.87c0.98,0.77,3.25,0.88,3.42-1C105.53,331.14,99.9,321.17,98.45,321.2z"/>
		<path class="st0" d="M26.38,316.8c0.2,0.48,0.41,0.91,0.65,1.23c6.06,8.08,55.97,15.3,55.97,15.3s2.19,0.4,4.07,3.88
			c1.88,3.48,6.72,4.3,11.14,1.68c4.42-2.62,3.73-4.87,3.73-4.87c0.98,0.77,3.25,0.88,3.42-1c0.16-1.88-5.46-11.86-6.91-11.83
			c-1.46,0.03-11.1,4.01-11.1,4.01l-38.97-20.45"/>
	</g>
</g>
<g id="WOMAN_3_HEAD">
	<g>
		<g>
			<g>
				<path class="st0" d="M86.94,210.85c0,0,2.82-4.19,5.85-2.77s2.01,11.53-5.45,10.15L86.94,210.85z"/>
			</g>
			<g>
				<path class="st7" d="M65.92,191.65l-1.73-0.82c-0.55-0.26-1.2-0.21-1.7,0.15c-0.57,0.41-1.3,1.04-1.73,1.86
					c-0.49,0.93-0.38,1.97-0.23,2.64c0.1,0.43,0.37,0.8,0.75,1.04l1.85,1.16c0.9,0.56,2.09,0.16,2.47-0.83l1.17-3.08
					C67.09,192.95,66.72,192.03,65.92,191.65z"/>
			</g>
			<g>
				<g>
					<g>
						<g>
							<path class="st7" d="M88.83,212.52c-0.34,6.25-3.12,13.46-10.68,13.26c-5.56-0.15-11.71-6.84-12.17-15.28
								c-0.47-8.44,1-15.67,11.16-15.16c0.91,0.05,2.42,0.25,3.23,0.43c5.89,1.3,8.14,1.83,8.58,13.42
								C88.98,210.2,88.9,211.34,88.83,212.52z"/>
						</g>
					</g>
				</g>
				<g>
					<g>
						<g>
							<path class="st5" d="M88.83,212.52c-0.34,6.25-3.12,13.46-10.68,13.26c-5.56-0.15-11.71-6.84-12.17-15.28
								c-0.47-8.44,1-15.67,11.16-15.16c0.91,0.05,2.42,0.25,3.23,0.43c5.89,1.3,8.14,1.83,8.58,13.42
								C88.98,210.2,88.9,211.34,88.83,212.52z"/>
						</g>
					</g>
				</g>
			</g>
			<path class="st7" d="M65.73,190.29l-1.71-0.81c-0.55-0.26-1.19-0.21-1.68,0.15c-0.57,0.41-1.28,1.04-1.71,1.85
				c-0.48,0.92-0.38,1.95-0.23,2.62c0.1,0.43,0.37,0.8,0.74,1.03l1.84,1.15c0.89,0.56,2.07,0.16,2.45-0.83l1.15-3.05
				C66.88,191.58,66.51,190.67,65.73,190.29z"/>
			<path class="st6" d="M68.43,209.78c2.52-1.05,3.49-2.99,3.79-4.82c0.11-0.72,0.18-1.7,0.39-2.59c4.26,4.46,12.31,7.17,15.81,8.19
				c1.13,0.33,2.37-0.05,3.03-1.02c4.09-6.04-0.79-17.62-8.63-17.39c-8.9-6.16-19.3-1.68-20.78,5.84
				C60.4,206.31,65.93,210.83,68.43,209.78z"/>
			<g>
				<g>
					<path class="st7" d="M68.57,210.85c0,0-4.1-4.24-8.42-2.86c-4.32,1.38-1.81,11.44,8.85,10.17L68.57,210.85z"/>
				</g>
				<g>
					<path class="st5" d="M68.57,210.85c0,0-4.1-4.24-8.42-2.86c-4.32,1.38-1.81,11.44,8.85,10.17"/>
				</g>
			</g>
		</g>
	</g>
</g>
<g id="LAPTOP">
	<g>
		<g>
			<path class="st3" d="M164.79,344.16H78.17c-1.79,0-3.23-1.45-3.23-3.23v-3.29c0-1.79,1.45-3.23,3.23-3.23h86.62
				c1.79,0,3.23,1.45,3.23,3.23v3.29C168.03,342.71,166.58,344.16,164.79,344.16z"/>
			<path class="st3" d="M108.58,344.16H78.17c-1.79,0-3.23-1.45-3.23-3.23v-3.29c0-1.79,1.45-3.23,3.23-3.23h30.41
				c1.79,0,3.23,1.45,3.23,3.23v3.29C111.81,342.71,110.36,344.16,108.58,344.16z"/>
			<path class="st9" d="M111.03,335.65c0.49,0.59,0.78,1.35,0.78,2.18v2.89c0,0.67-0.19,1.3-0.53,1.83"/>
		</g>
		<g>
			<path class="st3" d="M160.87,334.4h-46.35c-2.48,0-4.17-2.51-3.23-4.81l20.5-50.33c1.07-2.62,3.61-4.33,6.43-4.33h46.35
				c2.48,0,4.17,2.51,3.23,4.81l-20.5,50.33C166.24,332.69,163.7,334.4,160.87,334.4z"/>
			<path class="st3" d="M165.84,334.4h-46.35c-2.48,0-4.17-2.51-3.23-4.81l20.5-50.33c1.07-2.62,3.61-4.33,6.43-4.33h46.35
				c2.48,0,4.17,2.51,3.23,4.81l-20.5,50.33C171.21,332.69,168.67,334.4,165.84,334.4z"/>
			<path class="st9" d="M164.59,334.4h-45.1c-2.48,0-4.17-2.51-3.23-4.81l20.5-50.33"/>
		</g>
	</g>
</g>
<g id="STEP_2">
	<g>
		<path class="st0" d="M385.52,163.02v273.95c0,6.97-5.65,12.63-12.63,12.63H227.29c-6.97,0-12.63-5.65-12.63-12.63V163.02
			c0-6.97,5.65-12.63,12.63-12.63H372.9C379.87,150.4,385.52,156.05,385.52,163.02z"/>
		<path class="st1" d="M385.52,344.88v92.09c0,6.97-5.65,12.63-12.63,12.63H227.29c-6.97,0-12.63-5.65-12.63-12.63v-92.09H385.52z"
			/>
		<path class="st2" d="M331.54,386.72h-62.9c-3.55,0-6.43-2.88-6.43-6.43v-0.8c0-3.55,2.88-6.43,6.43-6.43h62.9
			c3.55,0,6.43,2.88,6.43,6.43v0.8C337.97,383.84,335.09,386.72,331.54,386.72z"/>
		<path class="st2" d="M315.57,410.9h-30.95c-3.55,0-6.43-2.88-6.43-6.43v-0.8c0-3.55,2.88-6.43,6.43-6.43h30.95
			c3.55,0,6.43,2.88,6.43,6.43v0.8C322,408.02,319.12,410.9,315.57,410.9z"/>
		<g>
			<path class="st2" d="M291.85,438.26h-10.18c-1.17,0-2.12-0.95-2.12-2.12v-0.26c0-1.17,0.95-2.12,2.12-2.12h10.18
				c1.17,0,2.12,0.95,2.12,2.12v0.26C293.97,437.31,293.02,438.26,291.85,438.26z"/>
			<circle class="st2" cx="304.13" cy="436" r="2.25"/>
			<circle class="st2" cx="318.39" cy="436" r="2.25"/>
		</g>
	</g>
</g>
<g id="STARS_1_">
	<g>
		<circle class="st3" cx="250.14" cy="180.65" r="8.13"/>
		<circle class="st3" cx="278.55" cy="211.98" r="4.71"/>
	</g>
</g>
<g id="WOMAN_2_RIGHT_UPPER_ARM">
	<g>
		<path class="st10" d="M281.11,276.86l-16.5,23.85c0,0-4.03,5.91-10.25,3.48c-0.06-0.02-0.12-0.05-0.17-0.07
			c-4.95-1.99-6.96-7.94-4.35-12.6c5.34-9.55,15.67-26.25,15.67-26.25L281.11,276.86z"/>
		<g>
			<g>
				<path class="st4" d="M259.1,271.33l24.32,18.05c12.55-17.27,22.64-38.19,18.57-46.25C290.86,221.02,270.16,251.25,259.1,271.33z
					"/>
				<line class="st11" x1="284.49" y1="285.78" x2="263.17" y2="269.76"/>
			</g>
		</g>
	</g>
</g>
<g id="WOMAN_2_HAIR">
	<path class="st6" d="M330.53,178.99c-5.33,0.86-3.61,11.93-2.6,15.55s-3.49,12.27,2.04,16.77c5.52,4.5-8.92,14.23,3.88,30.54
		c9.87,12.57,32.41,9.94,31.96-1.34c-0.45-11.28-16.28-20.06-16.56-30.38c-0.18-6.57,4.49-14.93-5.04-20.53
		C337.1,185.42,334.74,178.31,330.53,178.99z"/>
</g>
<g id="WOMAN_2_BODY">
	<g>
		<g>
			<path class="st4" d="M280.84,343.89h85.18l-13.29-62.81l-1.75-43.67c0,0-18.7-12.24-33.61-12.24
				c-11.23,0-30.52,11.45-30.52,11.45l-0.62,7.39c0,0-5.05,13.95-5.05,19.21c0,5.26,8.97,17.32,8.97,17.32
				S283.46,323.51,280.84,343.89z"/>
			<line class="st10" x1="285.47" y1="339.4" x2="363.44" y2="339.4"/>
			<path class="st11" d="M286.66,238.81l-0.44,5.2c0,0-5.05,13.95-5.05,19.21s8.97,17.32,8.97,17.32s-0.46,3-1.19,7.77"/>
			<g>
				<path class="st10" d="M318.22,221.79c-6.31,0.41-9.9,4.61-10.31,8.04s2.06,6.6,4.4,7.29c0,0,2.34-6.53,4.12-6.53
					s3.09,7.56,3.09,7.56s8.45,0,10.72-7.22C331.81,225.96,325.58,221.31,318.22,221.79z"/>
			</g>
		</g>
		<g>
			<g>
				<path class="st10" d="M314.1,225.91c0,0,0.22,2.17,2.92,3.2c0,0,4.25,0.2,7.44-3.2l-0.75-13.72l-2.57,0.54l-6.25,1.31
					l-0.66,9.87L314.1,225.91z"/>
			</g>
			<path class="st6" d="M314.23,223.91c7.48-0.74,8.11-10.28,8.11-10.28c-0.4-0.34-0.8-0.64-1.2-0.9l-6.25,1.31L314.23,223.91z"/>
		</g>
	</g>
</g>
<g id="WOMAN_2_RIGHT_ARM">
	<g>
		<path class="st7" d="M263.64,286.62c0,0,4.84,3.19,1.96,9.95c-2.34,5.5-6.67,7.04-10.48,6.79c-0.25-0.02-0.49-0.04-0.73-0.07
			c-0.25-0.04-0.49-0.07-0.73-0.12c-0.24-0.04-0.48-0.1-0.72-0.16c-1.03-0.43-1.77-0.79-2.08-1.03c-2.48-1.86-6.48-6.36-9.65-10.04
			c-2.53-2.95-2.62-7.27-0.22-10.32l0,0c2.5-3.17,6.94-4.03,10.44-2.02L263.64,286.62"/>
		<path class="st10" d="M255.13,303.36c-0.25-0.02-0.49-0.04-0.73-0.07c-0.25-0.04-0.49-0.07-0.73-0.12
			c-0.24-0.04-0.48-0.1-0.72-0.16c-1.03-0.43-1.77-0.79-2.08-1.03c-2.48-1.86-6.48-6.36-9.65-10.04c-2.53-2.95-2.62-7.27-0.22-10.32
			l0,0c2.5-3.17,6.94-4.03,10.44-2.02l12.21,7.02"/>
	</g>
</g>
<g id="WOMAN_2_LEFT_UPPER_ARM">
	<g>
		<path class="st10" d="M342.01,288.31c-6.52-21.97-14.8-57.8,8.97-50.9c7.14,2.07,14.16,25,17.63,46.06
			c1.77,10.8,2.61,21.1,2.04,27.85c-0.36,4.26-3.62,7.81-7.88,8.15c-6.76,0.54-12.75-5.06-16.34-15.16
			C346.42,304.31,344.84,297.84,342.01,288.31z"/>
		<g>
			<path class="st12" d="M340.89,287.75l29.93-4.61c-3.46-21.06-11.25-42.94-19.85-45.72C327.43,229.8,334.37,265.77,340.89,287.75z
				"/>
			<path class="st11" d="M346.33,236.42c-16.52-1.37-12.32,26.16-6.83,46.43"/>
			<line class="st11" x1="369.01" y1="279.84" x2="342.63" y2="283.75"/>
		</g>
	</g>
</g>
<g id="WOMAN_2_HEAD">
	<g>
		<g>
			<g>
				<path class="st10" d="M305.93,204.19c0,0-2.96-4.4-6.15-2.9c-3.18,1.5-2.11,12.1,5.72,10.66L305.93,204.19z"/>
			</g>
			<g>
				<path class="st7" d="M328,184.03l1.81-0.86c0.58-0.28,1.26-0.22,1.78,0.15c0.6,0.43,1.36,1.1,1.81,1.96
					c0.51,0.97,0.4,2.07,0.24,2.78c-0.1,0.46-0.39,0.84-0.79,1.09l-1.95,1.21c-0.95,0.59-2.2,0.17-2.59-0.88l-1.22-3.23
					C326.78,185.39,327.17,184.42,328,184.03z"/>
			</g>
			<g>
				<g>
					<g>
						<g>
							<path class="st7" d="M303.94,205.93c0.36,6.56,3.28,14.14,11.22,13.92c5.84-0.16,12.29-7.18,12.78-16.05
								c0.49-8.86-1.05-16.45-11.72-15.92c-0.95,0.05-2.54,0.26-3.39,0.45c-6.19,1.37-8.55,1.92-9.01,14.09
								C303.78,203.5,303.87,204.7,303.94,205.93z"/>
						</g>
					</g>
				</g>
				<g>
					<g>
						<g>
							<path class="st11" d="M303.94,205.93c0.36,6.56,3.28,14.14,11.22,13.92c5.84-0.16,12.29-7.18,12.78-16.05
								c0.49-8.86-1.05-16.45-11.72-15.92c-0.95,0.05-2.54,0.26-3.39,0.45c-6.19,1.37-8.55,1.92-9.01,14.09
								C303.78,203.5,303.87,204.7,303.94,205.93z"/>
						</g>
					</g>
				</g>
			</g>
			<path class="st7" d="M328.2,182.6l1.8-0.85c0.58-0.27,1.25-0.22,1.77,0.15c0.6,0.43,1.35,1.09,1.8,1.94
				c0.51,0.96,0.4,2.05,0.24,2.75c-0.1,0.45-0.39,0.84-0.78,1.08l-1.93,1.2c-0.94,0.59-2.18,0.17-2.57-0.87l-1.21-3.2
				C326.99,183.95,327.38,182.99,328.2,182.6z"/>
			<path class="st6" d="M325.36,203.06c-2.64-1.11-3.67-3.14-3.98-5.07c-0.11-0.76-0.19-1.79-0.41-2.71
				c-4.47,4.69-12.92,7.53-16.6,8.6c-1.18,0.34-2.49-0.06-3.18-1.07c-4.3-6.34,0.83-18.5,9.06-18.27
				c9.35-6.47,20.27-1.77,21.82,6.13C333.8,199.42,328,204.16,325.36,203.06z"/>
			<g>
				<g>
					<path class="st7" d="M325.21,204.19c0,0,4.31-4.45,8.84-3s1.9,12.01-9.29,10.68L325.21,204.19z"/>
				</g>
				<g>
					<path class="st11" d="M325.21,204.19c0,0,4.31-4.45,8.84-3s1.9,12.01-9.29,10.68"/>
				</g>
			</g>
		</g>
	</g>
</g>
<g id="DEBIT_CARD">
	<g>
		<path class="st13" d="M320.43,337.15l-84.57-28.96c-2.02-0.69-3.1-2.89-2.4-4.91l19.58-57.16c0.69-2.02,2.89-3.1,4.91-2.4
			l84.57,28.96c2.02,0.69,3.1,2.89,2.4,4.91l-19.58,57.16C324.64,336.77,322.45,337.84,320.43,337.15z"/>
		
			<rect x="245.19" y="268" transform="matrix(0.9461 0.324 -0.324 0.9461 105.6207 -80.2294)" class="st10" width="97.12" height="18.16"/>
		<g>
			<path class="st10" d="M318.97,318l-12.75-4.37c-1.01-0.35-1.55-1.44-1.2-2.45l0.25-0.72c0.35-1.01,1.44-1.55,2.45-1.2l12.75,4.37
				c1.01,0.35,1.55,1.44,1.2,2.45l-0.25,0.72C321.07,317.8,319.97,318.34,318.97,318z"/>
			<path class="st10" d="M316.17,326.17l-6.96-2.38c-1.01-0.35-1.55-1.44-1.2-2.45l0.25-0.72c0.35-1.01,1.44-1.55,2.45-1.2
				l6.96,2.38c1.01,0.35,1.55,1.44,1.2,2.45l-0.25,0.72C318.27,325.98,317.18,326.51,316.17,326.17z"/>
		</g>
	</g>
</g>
<g id="WOMAN_2_RIGHT_HAND">
	<g>
		<path class="st10" d="M245.22,265.14c-7.43-3.64-10.97,4.21-3.55,7.67C249.08,276.28,258.97,271.87,245.22,265.14z"/>
		<path class="st10" d="M241.82,270.76c-9.99-1.77-12.42,8.93-11.76,14.64c0.66,5.71,10.05,8.39,14.71,3.42
			C249.42,283.84,252.71,272.69,241.82,270.76z"/>
	</g>
</g>
<g id="WOMAN_2_LEFT_ARM">
	<g>
		<path class="st7" d="M369.22,304.85c-1.36-8.37-8.03-8.5-8.03-8.5l-16.12,1.13c0,0,1.31-4.9-3.34-6.48
			c-4.64-1.58-19.43,0.32-19.19,3.31c0.24,2.99,6.68,3.37,6.68,3.37s-6.75,0.95-6.39,5.34c0.36,4.39,2.29,10.85,5.85,12.77
			c3.57,1.92,12.46,0.19,12.46,0.19c3.19,0.85,11.25,2.71,17.02,3.19c0.46,0.04,1.4-0.07,2.67-0.28
			C365.58,317.34,370.54,312.98,369.22,304.85z"/>
		<path class="st10" d="M355.18,296.77l-10.11,0.71c0,0,1.31-4.9-3.34-6.48c-4.64-1.58-19.43,0.32-19.19,3.31
			c0.24,2.99,6.68,3.37,6.68,3.37s-6.75,0.95-6.39,5.34c0.36,4.39,2.29,10.85,5.85,12.77c3.57,1.92,12.46,0.19,12.46,0.19
			c3.19,0.85,11.25,2.71,17.02,3.19c0.36,0.03,1-0.03,1.86-0.15"/>
		<path class="st10" d="M329.23,297.69c0,0,5.56-1.81,11.58-0.89"/>
	</g>
</g>
<g id="STEP_3">
	<g>
		<path class="st0" d="M581.44,163.02v273.95c0,6.97-5.65,12.63-12.63,12.63H423.2c-6.97,0-12.63-5.65-12.63-12.63V163.02
			c0-6.97,5.65-12.63,12.63-12.63h145.61C575.79,150.4,581.44,156.05,581.44,163.02z"/>
		<path class="st1" d="M581.44,344.88v92.09c0,6.97-5.65,12.63-12.63,12.63H423.2c-6.97,0-12.63-5.65-12.63-12.63v-92.09H581.44z"/>
		<path class="st2" d="M527.46,386.72h-62.9c-3.55,0-6.43-2.88-6.43-6.43v-0.8c0-3.55,2.88-6.43,6.43-6.43h62.9
			c3.55,0,6.43,2.88,6.43,6.43v0.8C533.89,383.84,531.01,386.72,527.46,386.72z"/>
		<path class="st2" d="M511.48,410.9h-30.95c-3.55,0-6.43-2.88-6.43-6.43v-0.8c0-3.55,2.88-6.43,6.43-6.43h30.95
			c3.55,0,6.43,2.88,6.43,6.43v0.8C517.91,408.02,515.03,410.9,511.48,410.9z"/>
		<g>
			<path class="st2" d="M487.76,438.26h-10.18c-1.17,0-2.12-0.95-2.12-2.12v-0.26c0-1.17,0.95-2.12,2.12-2.12h10.18
				c1.17,0,2.12,0.95,2.12,2.12v0.26C489.89,437.31,488.94,438.26,487.76,438.26z"/>
			<circle class="st2" cx="500.04" cy="436" r="2.25"/>
			<circle class="st2" cx="514.3" cy="436" r="2.25"/>
		</g>
	</g>
</g>
<g id="MAN_RIGHT_ARM">
	<g>
		<g>
			<path class="st3" d="M467.81,324.07l25.94-14.19l5.46-2.99c2.42-1.32,4.43-3.27,5.83-5.64l2.57-4.35l28.43-51.48
				c0,0-18.34-27.39-32.53-3.18l-17.41,45.61l-26.68,23.45C459.43,311.31,457.74,318.71,467.81,324.07z"/>
			<path class="st14" d="M465.39,309.5c0,0,1.11,5.5,6,9.09"/>
			<circle class="st15" cx="466.82" cy="319.7" r="1.34"/>
			<path class="st7" d="M493.75,309.88l5.46-2.99c2.42-1.32,4.43-3.27,5.83-5.64l2.57-4.35c-0.43-0.49-0.94-0.92-1.51-1.29
				c-3.92-2.53-9.42-0.98-12.29,3.46C491.51,302.65,491.59,307,493.75,309.88z"/>
		</g>
	</g>
</g>
<g id="MAN_BODY">
	<g>
		<path class="st3" d="M574.2,242.98c0,0-19.31-13.86-59.57-10.4c0,0-11.39,9.74-8.75,38.61c2.64,28.88,3.3,72.87,3.3,72.87h76.9
			C586.08,344.06,586.58,299.58,574.2,242.98z"/>
		<line class="st14" x1="583" y1="339.73" x2="514.58" y2="339.73"/>
		<path class="st14" d="M512.97,234.45c-2.42,3.18-6.71,10.68-7.39,24.54l-0.09,3.6v1.23c0,2.1,0.1,4.2,0.29,6.29l0.2,2.15
			l0.65,8.22"/>
		<path class="st15" d="M553.19,240.24c-2.64,6.14-7.59,8.62-10.7,9.59c-0.8-4.38-2.99-9.88-2.99-9.88
			c-2.44,3.36-3.73,7.8-4.05,9.83c-7.9-2.17-8.8-9.77-8.8-9.77c0.97-7.61,7.51-13.35,13.13-13.16
			C552.2,227.28,553.19,240.24,553.19,240.24z"/>
	</g>
</g>
<g id="MAN_NECK">
	<path class="st15" d="M547.05,211.51l-0.2,7.64l-0.34,13.06c-4.39,3.07-8.67,3.4-12.79,0.3l0.6-6.07l0.91-9.19L547.05,211.51z"/>
</g>
<g id="MAN_HEAD">
	<g>
		<g>
			<g>
				<path class="st7" d="M524.58,213.75c0.57,6.29,2.32,13.82,9.86,12.73c8.97-1.3,14.83-7.58,15-16.1
					c0.17-8.52-3.71-13.37-13.93-12.5c-0.91,0.08-1.77,0.23-2.58,0.43c-5.89,1.52-8.89,6.36-8.59,12.08
					C524.4,211.42,524.47,212.56,524.58,213.75z"/>
			</g>
			<g>
				<path class="st14" d="M532.93,198.31c-5.89,1.52-8.89,6.36-8.59,12.08c0.06,1.03,0.12,2.18,0.23,3.36
					c0.57,6.29,2.32,13.82,9.86,12.73c3.63-0.53,6.74-1.86,9.18-3.83"/>
			</g>
			<path class="st6" d="M554.5,205.6c-0.08,1.64-0.74,3.73-2.41,6.4c0,0-1.31,1.89-2.93,3.47l-4.52,0.23l-0.93-3.21
				c0,0-2.87-0.16-3.44-2.1c0,0-0.01-0.04-0.03-0.14c-0.11-0.46-0.44-2.09-0.41-4.66c0.01-0.93,0.05-2.01,0.18-3.19
				c0,0-5.85,2.52-9.72,3.19c-0.34,0.06-0.66,0.11-0.97,0.14c-0.54,0.05-1.13,0-1.72-0.14c-0.88-0.19-1.78-0.56-2.65-1.01
				c-0.25-0.13-0.52-0.29-0.76-0.48c0.47-4.84,3.19-9.02,7.08-11.49c2.02-0.39,7.23-1.2,13.13-0.24c9.23,1.51,6.86,7.85,6.86,7.85
				S554.75,201.4,554.5,205.6z"/>
			<path class="st16" d="M553.86,205.42h-30.02c0-0.49,0.02-0.97,0.06-1.45c0.46-4.73,3.11-8.8,6.92-11.22
				c2.31-1.48,5.07-2.33,8.03-2.33C547.14,190.42,553.86,197.14,553.86,205.42z"/>
			<g>
				<path class="st17" d="M535.39,205.42h-14.2v-8.8h6.06c4.49,0,8.14,3.64,8.14,8.14V205.42z"/>
				<path class="st17" d="M528.31,205.42h-0.7c0-3.55-2.87-6.42-6.42-6.42s-6.44,2.87-6.44,6.42h-0.69c-0.97,0-1.68-0.9-1.48-1.85
					c0.85-3.97,4.37-6.95,8.6-6.95c4.22,0,7.75,2.98,8.6,6.95C530,204.52,529.28,205.42,528.31,205.42z"/>
				<path class="st17" d="M527.61,205.42h-12.86c0-3.55,2.88-6.42,6.44-6.42S527.61,201.87,527.61,205.42z"/>
			</g>
			<g>
				<path class="st7" d="M545.62,215.23c-0.35-3.57,2.19-6.85,5.75-7.22c0.73-0.08,1.48-0.03,2.25,0.18
					c4.4,1.24,3.14,11.5-7.65,10.6L545.62,215.23z"/>
				<path class="st14" d="M545.62,215.23c-0.35-3.57,2.19-6.85,5.75-7.22c0.73-0.08,1.48-0.03,2.25,0.18
					c4.4,1.24,3.14,11.5-7.65,10.6"/>
			</g>
		</g>
	</g>
</g>
<g id="STARS">
	<g>
		<circle class="st3" cx="495.65" cy="210.68" r="4.71"/>
		<circle class="st3" cx="444.06" cy="178.94" r="6.15"/>
		<circle class="st3" cx="539.92" cy="170.81" r="8.13"/>
	</g>
</g>
<g id="WOMAN_1_LEFT_UPPER_ARM">
	<g>
		<path class="st18" d="M473.17,282.6l11.09,17.02c3.12,4.79,9.45,6.3,14.4,3.44l0,0c5.31-3.08,6.98-9.97,3.65-15.13l-11.74-18.23
			L473.17,282.6z"/>
		<g>
			<g>
				<path class="st4" d="M499.32,279.56l-21.56,16c-11.13-15.31-20.07-33.86-16.47-41.01C471.17,234.95,489.52,261.75,499.32,279.56
					z"/>
				<line class="st9" x1="476.81" y1="292.36" x2="495.72" y2="278.16"/>
			</g>
		</g>
	</g>
</g>
<g id="WOMAN_1_HAIR">
	<path class="st6" d="M435.99,197.68c4.73,0.76,3.21,10.58,2.3,13.79c-0.9,3.21,3.09,10.88-1.81,14.87
		c-4.9,3.99,7.91,12.61-3.44,27.08c-8.75,11.15-28.74,8.81-28.34-1.19c0.4-10,14.43-17.78,14.68-26.93
		c0.16-5.82-3.98-13.24,4.47-18.21C430.17,203.38,432.26,197.08,435.99,197.68z"/>
</g>
<g id="WOMAN_1_BODY">
	<g>
		<g>
			<path class="st4" d="M480.05,343.89h-75.53l11.79-55.69l1.55-38.72c0,0,16.58-10.85,29.8-10.85c9.96,0,27.06,10.15,27.06,10.15
				l0.55,6.55c0,0,4.48,12.37,4.48,17.03c0,4.66-7.95,15.36-7.95,15.36S477.73,325.82,480.05,343.89z"/>
			<line class="st18" x1="409.96" y1="339.4" x2="475.78" y2="339.4"/>
			<path class="st9" d="M474.89,250.72l0.39,4.61c0,0,4.48,12.37,4.48,17.03s-7.95,15.36-7.95,15.36s0.41,2.66,1.06,6.89"/>
			<g>
				<path class="st18" d="M446.91,235.63c5.6,0.37,8.78,4.08,9.14,7.13c0.37,3.05-1.83,5.85-3.9,6.46c0,0-2.07-5.79-3.66-5.79
					s-2.74,6.7-2.74,6.7s-7.5,0-9.51-6.4C434.85,239.32,440.39,235.2,446.91,235.63z"/>
			</g>
		</g>
		<g>
			<g>
				<path class="st18" d="M450.56,239.29c0,0-0.19,1.92-2.59,2.84c0,0-3.76,0.18-6.6-2.84l0.67-12.16l2.28,0.48l5.54,1.16l0.59,8.75
					L450.56,239.29z"/>
			</g>
			<path class="st6" d="M450.44,237.51c-6.63-0.65-7.19-9.11-7.19-9.11c0.35-0.3,0.71-0.56,1.07-0.79l5.54,1.16L450.44,237.51z"/>
		</g>
	</g>
</g>
<g id="WOMAN_1_LEFT_ARM">
	<g>
		<path class="st7" d="M486.27,295.98c0,0-0.09,5.14,6.3,6.42c5.19,1.04,8.49-1.35,10.22-4.27c0.11-0.2,0.22-0.38,0.31-0.57
			c0.1-0.2,0.19-0.4,0.28-0.59c0.09-0.19,0.17-0.4,0.25-0.6c0.2-0.97,0.31-1.69,0.29-2.04c-0.17-3.99-8.16-32.57-10.25-40.32
			c-0.28-1.05-1.26-1.75-2.35-1.68l-7.87,0.53c-1.3,0.09-2.26,1.25-2.1,2.54L486.27,295.98"/>
		<path class="st18" d="M502.78,298.13c0.11-0.2,0.22-0.38,0.31-0.57c0.1-0.2,0.19-0.4,0.28-0.59c0.09-0.19,0.17-0.4,0.25-0.6
			c0.2-0.97,0.31-1.69,0.29-2.04c-0.17-3.99-8.16-32.57-10.25-40.32c-0.28-1.05-1.26-1.75-2.35-1.68l-7.87,0.53
			c-1.3,0.09-2.26,1.25-2.1,2.54l4.92,40.59"/>
	</g>
</g>
<g id="WOMAN_1_HEAD">
	<g>
		<g>
			<g>
				<path class="st18" d="M457.8,220.02c0,0,2.63-3.9,5.45-2.58c2.82,1.33,1.87,10.73-5.07,9.45L457.8,220.02z"/>
			</g>
			<g>
				<path class="st7" d="M438.24,202.14l-1.61-0.76c-0.51-0.24-1.12-0.19-1.58,0.14c-0.53,0.38-1.21,0.97-1.61,1.73
					c-0.45,0.86-0.36,1.84-0.22,2.46c0.09,0.4,0.35,0.75,0.7,0.97l1.73,1.08c0.84,0.52,1.95,0.15,2.3-0.78l1.08-2.87
					C439.32,203.35,438.98,202.49,438.24,202.14z"/>
			</g>
			<g>
				<g>
					<g>
						<g>
							<path class="st7" d="M459.57,221.57c-0.32,5.82-2.91,12.54-9.94,12.35c-5.17-0.14-10.9-6.37-11.33-14.23
								c-0.44-7.86,0.93-14.59,10.39-14.12c0.84,0.04,2.26,0.23,3.01,0.4c5.48,1.21,7.58,1.7,7.99,12.49
								C459.71,219.41,459.63,220.47,459.57,221.57z"/>
						</g>
					</g>
				</g>
				<g>
					<g>
						<g>
							<path class="st9" d="M459.57,221.57c-0.32,5.82-2.91,12.54-9.94,12.35c-5.17-0.14-10.9-6.37-11.33-14.23
								c-0.44-7.86,0.93-14.59,10.39-14.12c0.84,0.04,2.26,0.23,3.01,0.4c5.48,1.21,7.58,1.7,7.99,12.49
								C459.71,219.41,459.63,220.47,459.57,221.57z"/>
						</g>
					</g>
				</g>
			</g>
			<path class="st7" d="M438.06,200.88l-1.59-0.76c-0.51-0.24-1.11-0.19-1.57,0.14c-0.53,0.38-1.2,0.96-1.59,1.72
				c-0.45,0.86-0.36,1.82-0.21,2.44c0.09,0.4,0.34,0.74,0.69,0.96l1.71,1.07c0.83,0.52,1.93,0.15,2.28-0.77l1.07-2.84
				C439.13,202.08,438.79,201.23,438.06,200.88z"/>
			<path class="st6" d="M440.58,219.02c2.34-0.98,3.25-2.78,3.53-4.49c0.1-0.67,0.16-1.58,0.36-2.41
				c3.97,4.15,11.46,6.68,14.72,7.62c1.05,0.3,2.21-0.05,2.82-0.95c3.81-5.63-0.73-16.4-8.03-16.2c-8.29-5.74-17.97-1.57-19.35,5.43
				C433.1,215.79,438.24,220,440.58,219.02z"/>
			<g>
				<g>
					<path class="st7" d="M440.71,220.02c0,0-3.82-3.94-7.84-2.66s-1.68,10.65,8.24,9.47L440.71,220.02z"/>
				</g>
				<g>
					<path class="st9" d="M440.71,220.02c0,0-3.82-3.94-7.84-2.66s-1.68,10.65,8.24,9.47"/>
				</g>
			</g>
		</g>
	</g>
</g>
<g id="BOX">
	<g>
		<polygon class="st18" points="522.35,268.67 503.32,277.13 494.05,281.27 473.78,290.29 437.21,269.69 457.49,260.67 
			466.75,256.54 485.78,248.07 		"/>
		<polygon class="st18" points="532.98,312.82 484.41,334.45 473.78,290.29 522.35,268.67 		"/>
		<polygon class="st19" points="494.05,281.27 498.3,298.92 507.57,294.79 503.33,277.14 		"/>
		<polygon class="st18" points="473.78,290.29 437.21,269.7 447.78,313.85 484.35,334.45 		"/>
		<polygon class="st19" points="503.32,277.13 494.05,281.27 457.49,260.67 466.75,256.54 		"/>
	</g>
</g>
<g id="WOMAN_1_LEFT_HAND">
	<g>
		<path class="st18" d="M470.9,245.29c1.06-7.26,8.57-5.92,7.4,1.24S468.93,258.72,470.9,245.29z"/>
		<path class="st18" d="M476.71,245.61c3.7-8.2,12.76-4.62,16.6-1.27c3.85,3.34,1.1,11.56-4.87,12.47
			C482.47,257.73,472.67,254.54,476.71,245.61z"/>
	</g>
</g>
<g id="WOMAN_1_RIGHT_UPPER_ARM">
	<g>
		<path class="st18" d="M433.19,293.39c2.56-20.16,4.68-52.69-15.13-43.26c-5.95,2.83-8.82,23.9-8.83,42.83
			c-0.01,9.71,0.74,18.83,2.2,24.66c0.92,3.67,4.29,6.32,8.06,6c5.99-0.49,10.43-6.25,12.13-15.61
			C431.62,308.02,432.08,302.13,433.19,293.39z"/>
		<g>
			<path class="st20" d="M434.09,292.73l-26.85,0.25c0.02-18.93,3.7-39.19,10.83-42.85C437.58,240.1,436.64,272.57,434.09,292.73z"
				/>
			<path class="st9" d="M421.98,248.6c14.26-3.57,14.53,21.13,12.62,39.65"/>
			<line class="st9" x1="408.35" y1="289.84" x2="432" y2="289.49"/>
		</g>
	</g>
</g>
<g id="WOMAN_1_RIGHT_ARM">
	<g>
		<path class="st7" d="M411.74,311.75c-0.01-7.52,5.81-8.58,5.81-8.58l14.27-1.32c0,0-1.85-4.1,1.99-6.15
			c3.84-2.05,17.05-2.5,17.27,0.15c0.22,2.65-5.37,3.91-5.37,3.91s6.04-0.14,6.36,3.75c0.32,3.89-0.45,9.83-3.29,12.01
			c-2.85,2.19-10.88,1.95-10.88,1.95c-2.67,1.2-9.46,3.98-14.44,5.22c-0.4,0.1-1.24,0.14-2.38,0.14
			C416.71,322.16,411.75,319.06,411.74,311.75z"/>
		<path class="st18" d="M422.87,302.68l8.95-0.83c0,0-1.85-4.1,1.99-6.15c3.84-2.05,17.05-2.5,17.27,0.15
			c0.22,2.65-5.37,3.91-5.37,3.91s6.04-0.14,6.36,3.75c0.32,3.89-0.45,9.83-3.29,12.01c-2.85,2.19-10.88,1.95-10.88,1.95
			c-2.67,1.2-9.46,3.98-14.44,5.22c-0.31,0.08-0.88,0.12-1.65,0.13"/>
		<path class="st18" d="M445.71,299.77c0,0-5.13-0.79-10.26,0.87"/>
	</g>
</g>
<g id="MAN_LEFT_UPPER_ARM">
	<path class="st3" d="M594.38,309.44c0-0.06-0.01-0.11-0.02-0.17c-2.49-21.32-10.88-62.52-20.16-66.29
		c-5.28-2.15-11.72,2.81-11.39,15.51c0.2,7.78,2.76,27.01,4.7,40.74c1.3,9.15,8.72,20.5,17.73,22.6
		C585.24,321.83,594.92,323.73,594.38,309.44z"/>
	<path class="st14" d="M569.73,242.84c-3.85,1.32-7.16,6.45-6.92,15.65c0.22,8.6,3.32,31.19,5.3,44.89"/>
</g>
<g id="MAN_LEFT_ARM">
	<g>
		<path class="st3" d="M586.82,323.22c-1.68,0.83-4.93,1.12-9,1.05c-0.6-0.01-1.21-0.03-1.85-0.06c-14.83-0.6-44.24-4.85-44.24-4.85
			l-0.69-12.13l45.59-8.03c10.05-1.97,16.99,5.2,17.7,12.39C594.82,316.31,592.6,321.05,586.82,323.22z"/>
		<path class="st7" d="M586.82,323.22c-1.68,0.83-4.93,1.12-9,1.05c-0.27-0.91-0.43-1.86-0.46-2.85
			c-0.19-6.16,4.63-11.29,10.78-11.49c2.26-0.07,4.39,0.54,6.19,1.65C594.82,316.31,592.6,321.05,586.82,323.22z"/>
		<path class="st14" d="M570.13,300.34l-39.08,6.89l0.69,12.13c0,0,29.41,4.26,44.24,4.86c2.4,0.1,4.57,0.09,6.4-0.05"/>
		<polyline class="st14" points="536.78,318.21 535.97,308.3 536.73,317.7 		"/>
		<g>
			<path class="st15" d="M531.7,318.59c0,0-4.64,1.54-6.93-1.79c0,0-7.81-0.54-9.59-2.35s-3.13-7.35-1.41-8.9
				c0,0-1.77-2.33,0.8-3.87c2.57-1.54,11.83-2.76,14.3-1.13C531.34,302.18,531.62,310.06,531.7,318.59z"/>
			<line class="st15" x1="523.35" y1="304.82" x2="515.2" y2="305.38"/>
		</g>
	</g>
</g>
</svg>
